<svg xmlns="http://www.w3.org/2000/svg" viewBox="0 0 100 100" fill="none" stroke="currentColor" stroke-width="4" stroke-linecap="round" stroke-linejoin="round">
  <!-- Brain/Mind element -->
  <path d="M30 45c-2-4-4-8-4-12 0-6 4-10 10-10 2 0 4 1 5 2 2-4 6-6 10-6 5 0 9 4 9 9 0 2-1 4-2 5 3 1 5 4 5 7 0 4-3 7-6 7-1 0-2 0-3-1"/>
  <path d="M35 50c-1 2-2 4-2 6 0 3 2 5 5 5 1 0 2 0 3-1"/>
  <path d="M45 55c-1 1-2 2-2 3 0 2 2 3 4 3 1 0 2 0 3-1"/>
  
  <!-- Speech bubble/meeting element -->
  <path d="M60 30c0-3 2-5 5-5h15c3 0 5 2 5 5v15c0 3-2 5-5 5h-5l-5 5-5-5h-5c-3 0-5-2-5-5V30z"/>
  <circle cx="70" cy="37" r="1.5" fill="currentColor"/>
  <circle cx="75" cy="37" r="1.5" fill="currentColor"/>
  <circle cx="70" cy="42" r="1.5" fill="currentColor"/>
</svg>

