<svg xmlns="http://www.w3.org/2000/svg" viewBox="0 0 100 100" fill="none" stroke="currentColor" stroke-width="5" stroke-linecap="round" stroke-linejoin="round">
  <!-- Simplified brain + message bubble combination -->
  <!-- Brain outline -->
  <path d="M25 40c-1-3-2-6-2-9 0-5 3-8 8-8 2 0 3 1 4 2 1-3 4-5 8-5 4 0 7 3 7 7 0 2-1 3-2 4 2 1 4 3 4 6 0 3-2 6-5 6-1 0-2 0-2-1"/>
  <path d="M30 45c-1 2-1 4-1 5 0 2 2 4 4 4 1 0 2 0 2-1"/>
  
  <!-- Speech bubble -->
  <path d="M55 25c0-2 2-4 4-4h12c2 0 4 2 4 4v12c0 2-2 4-4 4h-4l-4 4-4-4h-4c-2 0-4-2-4-4V25z"/>
  <circle cx="63" cy="31" r="1" fill="currentColor"/>
  <circle cx="68" cy="31" r="1" fill="currentColor"/>
  <circle cx="63" cy="35" r="1" fill="currentColor"/>
</svg>

