<?xml version="1.0" encoding="utf-8"?>

<!-- Uploaded to: SVG Repo, www.svgrepo.com, Generator: SVG Repo Mixer Tools -->
<svg version="1.1" id="Icons" xmlns="http://www.w3.org/2000/svg" xmlns:xlink="http://www.w3.org/1999/xlink" 
	 viewBox="0 0 32 32" xml:space="preserve">
<style type="text/css">
	.st0{fill:none;stroke:#000000;stroke-width:2;stroke-linecap:round;stroke-linejoin:round;stroke-miterlimit:10;}
</style>
<path d="M28,17.1c1.2-1.2,2-2.9,2-4.6c0-3.4-2.7-6.2-6-6.5c-0.2-2.3-2.2-4-4.5-4c-1.4,0-2.7,0.7-3.5,1.7c-0.8-1-2.1-1.7-3.5-1.7
	C10.2,2,8.3,3.8,8,6c-3.4,0.2-6,3.1-6,6.5c0,0.3,0,0.6,0.1,0.9c0,0.1,0,0.2,0,0.3c0,0.3,0.1,0.5,0.2,0.7c0,0.2,0.1,0.3,0.2,0.5
	c0,0.1,0.1,0.2,0.1,0.2c0.3,0.8,0.8,1.5,1.4,2c-0.6,1-0.9,2.2-0.9,3.4c0,3.1,2.2,5.8,5.2,6.4c0.6,1.8,2.3,3.1,4.3,3.1
	c1.4,0,2.7-0.7,3.5-1.7c0.8,1,2.1,1.7,3.5,1.7c2,0,3.7-1.3,4.3-3.1c2.7-0.5,4.8-2.8,5.1-5.5C29,21.3,29,21.1,29,21
	c0-0.1,0-0.2,0-0.3c0-0.1,0-0.2,0-0.2C29,19.3,28.7,18.1,28,17.1z M21.7,15.7l-8,8C13.5,23.9,13.3,24,13,24c-0.2,0-0.4,0-0.5-0.1
	c-0.4-0.2-0.6-0.7-0.4-1.2l1.6-4.7H11c-0.4,0-0.8-0.3-0.9-0.6c-0.2-0.4-0.1-0.8,0.2-1.1l8.5-8c0.3-0.3,0.9-0.4,1.3-0.1
	c0.4,0.3,0.5,0.8,0.4,1.2L18.5,14H21c0.4,0,0.8,0.2,0.9,0.6C22.1,15,22,15.4,21.7,15.7z"/>
</svg>